# xmcd
#
# Track frame offsets: 
#        150
#        13802
#        26490
#        39605
#        52797
#        66307
#        78590
#        92685
#        106837
#        120427
#        132965
#        147485
#        159577
#        173562
#        185610
#        197650
#        210955
#        225150
#        241865
#        254175
#        266465
#        281020
#        296475
#        310300
#
# Disc length: 4335 seconds
#
# Revision: 0
# Processed by: cddbd v1.4PL0 Copyright (c) Steve Scherf et al.
# Submitted via: ExactAudioCopy v0.90b4
#
DISCID=4e10ed18
DTITLE=Hank Snow - The Yodelling Ranger, Vol. 1 - Disc 1
DYEAR=1900
DGENRE=Country
TTITLE0=Prisoned Cowboy
TTITLE1=Lonesome Blue Yodel
TTITLE2=Blue For Old Hawaii
TTITLE3=We Met Down In The Hills Of Old Wyoming
TTITLE4=My San Antonio Mama
TTITLE5=My Little Swiss Maiden
TTITLE6=Was There Ever A Pal Like You
TTITLE7=The Blue Velvet Band
TTITLE8=The Hobo's Last Ride
TTITLE9=The Answer To That Silver Haired Daddy Of Mine
TTITLE10=Someday You'll Care
TTITLE11=I'll Ride Back To Lonesome Valley
TTITLE12=Bluer Than Blue
TTITLE13=Yodelling Back To You
TTITLE14=There's A Picture On Pinto's Bridle
TTITLE15=The Texas Cowboy
TTITLE16=On The Mississippi Shore
TTITLE17=Under Hawaiian Skies
TTITLE18=She's A Rose From The Garden Of Prayer
TTITLE19=Wanderin' On
TTITLE20=Broken Wedding Ring
TTITLE21=You Didn't Have To Tell Me
TTITLE22=His Message Home
TTITLE23=Answer To The Blue Velvet Band
EXTD=
EXTT0=
EXTT1=
EXTT2=
EXTT3=
EXTT4=
EXTT5=
EXTT6=
EXTT7=
EXTT8=
EXTT9=
EXTT10=
EXTT11=
EXTT12=
EXTT13=
EXTT14=
EXTT15=
EXTT16=
EXTT17=
EXTT18=
EXTT19=
EXTT20=
EXTT21=
EXTT22=
EXTT23=
PLAYORDER=
